# xmcd
#
# Track frame offsets:
#	150
#	31139
#	73652
#	102045
#	132612
#	155460
#	172614
#	194673
#	234303
#	254872
#	286345
#	325402
#
# Disc length: 4768 seconds
#
# Revision: 2
# Processed by: cddbd v1.5.2PL0 Copyright (c) Steve Scherf et al.
# Submitted via: audiograbber 1.83.01
#
DISCID=ab129e0c
DTITLE=Michael Connelly - Das zweite Herz - CD 6
DYEAR=2007
DGENRE=Hörbuch
TTITLE0=063
TTITLE1=064
TTITLE2=065
TTITLE3=066
TTITLE4=067
TTITLE5=068
TTITLE6=069
TTITLE7=070
TTITLE8=071
TTITLE9=072
TTITLE10=073
TTITLE11=074
EXTD=
EXTT0=
EXTT1=
EXTT2=
EXTT3=
EXTT4=
EXTT5=
EXTT6=
EXTT7=
EXTT8=
EXTT9=
EXTT10=
EXTT11=
PLAYORDER=
